<svg version="1.1" xmlns="http://www.w3.org/2000/svg" xmlns:xlink="http://www.w3.org/1999/xlink" width="24" height="24" viewBox="0,0,256,256"><g fill="#ffc000" fill-rule="nonzero" stroke="none" stroke-width="1" stroke-linecap="butt" stroke-linejoin="miter" stroke-miterlimit="10" stroke-dasharray="" stroke-dashoffset="0" font-family="none" font-weight="none" font-size="none" text-anchor="none" style="mix-blend-mode: normal"><g transform="translate(-0.78266,255.30968) scale(0.26667,0.26667)"><path d="M226,-559l78,33c9.33333,-18.66667 19,-36.66667 29,-54c10,-17.33333 21,-34.66667 33,-52l-56,-11zM368,-476l114,113c28,-10.66667 58,-27 90,-49c32,-22 62,-47 90,-75c46.66667,-46.66667 83.16667,-98.5 109.5,-155.5c26.33333,-57 37.83333,-109.5 34.5,-157.5c-48,-3.33333 -100.66667,8.16667 -158,34.5c-57.33333,26.33333 -109.33333,62.83333 -156,109.5c-28,28 -53,58 -75,90c-22,32 -38.33333,62 -49,90zM546,-541c-15.33333,-15.33333 -23,-34.16667 -23,-56.5c0,-22.33333 7.66667,-41.16667 23,-56.5c15.33333,-15.33333 34.33333,-23 57,-23c22.66667,0 41.66667,7.66667 57,23c15.33333,15.33333 23,34.16667 23,56.5c0,22.33333 -7.66667,41.16667 -23,56.5c-15.33333,15.33333 -34.33333,23 -57,23c-22.66667,0 -41.66667,-7.66667 -57,-23zM565,-220l84,-84l-11,-56c-17.33333,12 -34.66667,22.83333 -52,32.5c-17.33333,9.66667 -35.33333,19.16667 -54,28.5zM878,-873c12.66667,80.66667 4.83333,159.16667 -23.5,235.5c-28.33333,76.33333 -77.16667,149.16667 -146.5,218.5l20,99c2.66667,13.33333 2,26.33333 -2,39c-4,12.66667 -10.66667,23.66667 -20,33l-168,168l-84,-197l-171,-171l-197,-84l167,-168c9.33333,-9.33333 20.5,-16 33.5,-20c13,-4 26.16667,-4.66667 39.5,-2l99,20c69.33333,-69.33333 142,-118.33333 218,-147c76,-28.66667 154.33333,-36.66667 235,-24zM157,-321c23.33333,-23.33333 51.83333,-35.16667 85.5,-35.5c33.66667,-0.33333 62.16667,11.16667 85.5,34.5c23.33333,23.33333 34.83333,51.83333 34.5,85.5c-0.33333,33.66667 -12.16667,62.16667 -35.5,85.5c-16.66667,16.66667 -44.5,31 -83.5,43c-39,12 -92.83333,22.66667 -161.5,32c9.33333,-68.66667 20,-122.5 32,-161.5c12,-39 26.33333,-66.83333 43,-83.5zM214,-265c-6.66667,6.66667 -13.33333,18.83333 -20,36.5c-6.66667,17.66667 -11.33333,35.5 -14,53.5c18,-2.66667 35.83333,-7.16667 53.5,-13.5c17.66667,-6.33333 29.83333,-12.83333 36.5,-19.5c8,-8 12.33333,-17.66667 13,-29c0.66667,-11.33333 -3,-21 -11,-29c-8,-8 -17.66667,-11.83333 -29,-11.5c-11.33333,0.33333 -21,4.5 -29,12.5z"></path></g></g></svg>