<svg version="1.1" xmlns="http://www.w3.org/2000/svg" xmlns:xlink="http://www.w3.org/1999/xlink" width="24" height="24" viewBox="0,0,256,256"><g fill="#ffc000" fill-rule="nonzero" stroke="none" stroke-width="1" stroke-linecap="butt" stroke-linejoin="miter" stroke-miterlimit="10" stroke-dasharray="" stroke-dashoffset="0" font-family="none" font-weight="none" font-size="none" text-anchor="none" style="mix-blend-mode: normal"><g transform="translate(0,256) scale(0.26667,0.26667)"><path d="M280,-120v-80h160v-124c-32.66667,-7.33333 -61.83333,-21.16667 -87.5,-41.5c-25.66667,-20.33333 -44.5,-45.83333 -56.5,-76.5c-50,-6 -91.83333,-27.83333 -125.5,-65.5c-33.66667,-37.66667 -50.5,-81.83333 -50.5,-132.5v-40c0,-22 7.83333,-40.83333 23.5,-56.5c15.66667,-15.66667 34.5,-23.5 56.5,-23.5h80v-80h400v80h80c22,0 40.83333,7.83333 56.5,23.5c15.66667,15.66667 23.5,34.5 23.5,56.5v40c0,50.66667 -16.83333,94.83333 -50.5,132.5c-33.66667,37.66667 -75.5,59.5 -125.5,65.5c-12,30.66667 -30.83333,56.16667 -56.5,76.5c-25.66667,20.33333 -54.83333,34.16667 -87.5,41.5v124h160v80zM280,-528v-152h-80v40c0,25.33333 7.33333,48.16667 22,68.5c14.66667,20.33333 34,34.83333 58,43.5zM480,-400c33.33333,0 61.66667,-11.66667 85,-35c23.33333,-23.33333 35,-51.66667 35,-85v-240h-240v240c0,33.33333 11.66667,61.66667 35,85c23.33333,23.33333 51.66667,35 85,35zM680,-528c24,-8.66667 43.33333,-23.16667 58,-43.5c14.66667,-20.33333 22,-43.16667 22,-68.5v-40h-80zM480,-580z"></path></g></g></svg>